<svg width="100" height="100" viewBox="0 0 100 100" fill="none" xmlns="http://www.w3.org/2000/svg">
<path d="M50.1998 92.1999C32.7998 92.1999 18.7998 78.1999 18.7998 60.7999V51.5999C18.7998 44.9999 24.1998 39.7999 30.5998 39.7999H69.5998C76.1998 39.7999 81.3998 45.1999 81.3998 51.5999V60.7999C81.5998 77.9999 67.3998 92.1999 50.1998 92.1999ZM30.5998 43.5999C26.1998 43.5999 22.7998 47.1999 22.7998 51.3999V60.5999C22.7998 75.7999 34.9998 87.9999 50.1998 87.9999C65.3998 87.9999 77.5998 75.7999 77.5998 60.5999V51.3999C77.5998 46.9999 73.9998 43.5999 69.7998 43.5999H30.5998Z" fill="#0C0C0C"/>
<path d="M68.5998 43.6C67.3998 43.6 66.5998 42.8 66.5998 41.6V36C66.5998 27 59.1998 19.6 50.1998 19.6C41.1998 19.6 33.7998 27 33.7998 36V41.6C33.7998 42.8 32.9998 43.6 31.7998 43.6C30.5998 43.6 29.7998 42.8 29.7998 41.6V36C29.7998 24.8 38.9998 15.6 50.1998 15.6C61.3998 15.6 70.5998 24.8 70.5998 36V41.6C70.5998 42.6 69.5998 43.6 68.5998 43.6Z" fill="#0C0C0C"/>
<path d="M50.2002 72.7999C49.0002 72.7999 48.2002 71.9999 48.2002 70.7999V59.7999C48.2002 58.5999 49.0002 57.7999 50.2002 57.7999C51.4002 57.7999 52.2002 58.5999 52.2002 59.7999V70.7999C52.2002 71.9999 51.2002 72.7999 50.2002 72.7999Z" fill="#0C0C0C"/>
</svg>
