<svg width="101" height="101" viewBox="0 0 101 101" fill="none" xmlns="http://www.w3.org/2000/svg">
<g clip-path="url(#clip0_121_198)">
<path d="M68.2804 71.726C67.9074 71.726 67.5344 71.584 67.2504 71.299L30.6914 34.733C30.1224 34.164 30.1224 33.242 30.6914 32.673C31.2604 32.104 32.1824 32.104 32.7504 32.673L69.3084 69.24C69.8774 69.809 69.8774 70.731 69.3084 71.3C69.0254 71.583 68.6524 71.726 68.2804 71.726Z" fill="#231F20"/>
<path d="M31.7214 71.726C31.3484 71.726 30.9764 71.584 30.6914 71.3C30.1224 70.731 30.1224 69.809 30.6914 69.24L67.2584 32.673C67.8274 32.104 68.7484 32.104 69.3174 32.673C69.8864 33.242 69.8864 34.164 69.3174 34.733L32.7504 71.3C32.4664 71.583 32.0944 71.726 31.7214 71.726Z" fill="#231F20"/>
<path d="M50.008 100.004C22.433 100.004 0 77.576 0 50.008C0 22.434 22.433 0 50.008 0C77.574 0 100 22.434 100 50.008C100 77.575 77.574 100.004 50.008 100.004ZM50.008 2.912C24.039 2.912 2.913 24.039 2.913 50.007C2.913 75.969 24.04 97.09 50.008 97.09C75.968 97.09 97.087 75.968 97.087 50.007C97.088 24.039 75.968 2.912 50.008 2.912Z" fill="#231F20"/>
</g>
<defs>
<clipPath id="clip0_121_198">
<rect width="100.353" height="100.353" fill="white"/>
</clipPath>
</defs>
</svg>
