<svg width="50" height="50" viewBox="0 0 50 50" fill="none" xmlns="http://www.w3.org/2000/svg">
<path d="M15.2161 34.3737C15.2161 31.5009 12.7769 29.1656 9.78114 29.1656C6.78541 29.1656 4.34621 31.5009 4.34621 34.3737C4.34621 37.2465 6.78541 39.5818 9.78114 39.5818C12.7769 39.5818 15.2161 37.2465 15.2161 34.3737ZM6.52018 34.3737C6.52018 32.6509 7.98326 31.2489 9.78114 31.2489C11.579 31.2489 13.0421 32.6509 13.0421 34.3737C13.0421 36.0965 11.579 37.4985 9.78114 37.4985C7.98326 37.4985 6.52018 36.0965 6.52018 34.3737ZM30.4338 34.3737C30.4338 31.5009 27.9946 29.1656 24.9989 29.1656C22.0032 29.1656 19.564 31.5009 19.564 34.3737C19.564 37.2465 22.0032 39.5818 24.9989 39.5818C27.9946 39.5818 30.4338 37.2465 30.4338 34.3737ZM21.738 34.3737C21.738 32.6509 23.201 31.2489 24.9989 31.2489C26.7968 31.2489 28.2599 32.6509 28.2599 34.3737C28.2599 36.0965 26.7968 37.4985 24.9989 37.4985C23.201 37.4985 21.738 36.0965 21.738 34.3737ZM24.9989 10.4166C27.9946 10.4166 30.4338 8.08128 30.4338 5.2085C30.4338 2.33573 27.9946 0.000432989 24.9989 0.000432989C22.0032 0.000432989 19.564 2.33573 19.564 5.2085C19.564 8.08128 22.0032 10.4166 24.9989 10.4166ZM24.9989 2.08366C26.7968 2.08366 28.2599 3.48567 28.2599 5.2085C28.2599 6.93133 26.7968 8.33335 24.9989 8.33335C23.201 8.33335 21.738 6.93133 21.738 5.2085C21.738 3.48567 23.201 2.08366 24.9989 2.08366ZM45.6516 34.3737C45.6516 31.5009 43.2124 29.1656 40.2167 29.1656C37.221 29.1656 34.7818 31.5009 34.7818 34.3737C34.7818 37.2465 37.221 39.5818 40.2167 39.5818C43.2124 39.5818 45.6516 37.2465 45.6516 34.3737ZM36.9557 34.3737C36.9557 32.6509 38.4188 31.2489 40.2167 31.2489C42.0146 31.2489 43.4776 32.6509 43.4776 34.3737C43.4776 36.0965 42.0146 37.4985 40.2167 37.4985C38.4188 37.4985 36.9557 36.0965 36.9557 34.3737ZM49.5908 1.85659L35.6688 12.529C35.06 12.9956 34.3948 13.3873 33.6948 13.6997V28.124C33.6948 28.699 33.2078 29.1656 32.6078 29.1656C32.0078 29.1656 31.5208 28.699 31.5208 28.124V14.3893C30.8773 14.5164 30.2186 14.583 29.5577 14.583H20.4423C19.7792 14.583 19.1227 14.5164 18.4792 14.3893V28.124C18.4792 28.699 17.9922 29.1656 17.3922 29.1656C16.7922 29.1656 16.3052 28.699 16.3052 28.124V13.6997C15.6052 13.3873 14.94 12.9956 14.3313 12.529L0.406984 1.85659C-0.0604193 1.49619 -0.136508 0.842057 0.237414 0.39208C0.613511 -0.0558142 1.29831 -0.126644 1.76571 0.229588L15.6878 10.902C17.0335 11.9332 18.7205 12.5019 20.4423 12.5019H29.5577C31.2795 12.5019 32.9665 11.9352 34.3122 10.902L48.2343 0.227505C48.7039 -0.13081 49.3865 -0.0578974 49.7626 0.389997C50.1365 0.839974 50.0604 1.49411 49.593 1.85451L49.5908 1.85659ZM48.8995 48.8063C48.9865 49.375 48.5756 49.9042 47.9821 49.9875C47.9299 49.9938 47.8756 49.9979 47.8234 49.9979C47.293 49.9979 46.8277 49.625 46.7495 49.1063C46.2821 46.0502 43.4733 43.7482 40.2167 43.7482C36.9601 43.7482 34.1491 46.0502 33.6839 49.1063C33.6839 49.1063 33.6926 49.9979 32.6078 49.9979C31.523 49.9979 31.5382 49.1334 31.5339 49.1084C31.0665 46.0523 28.2577 43.7503 25.0011 43.7503C21.7445 43.7503 18.9335 46.0523 18.4683 49.1084C18.4683 49.1084 18.3705 50 17.3922 50C16.4139 50 16.3574 49.1355 16.3183 49.1105C15.8509 46.0544 13.0421 43.7524 9.78548 43.7524C6.52888 43.7524 3.71794 46.0544 3.25271 49.1105C3.16575 49.6792 2.61356 50.0542 2.02007 49.9917C1.42657 49.9083 1.0157 49.3792 1.10265 48.8105C1.72441 44.7399 5.45711 41.6692 9.78766 41.6692C12.9899 41.6692 15.8639 43.3483 17.3965 45.869C18.9292 43.3483 21.8032 41.6692 25.0054 41.6692C28.2077 41.6692 31.0817 43.3483 32.6143 45.869C34.147 43.3483 37.021 41.6692 40.2232 41.6692C44.5516 41.6692 48.2843 44.7399 48.9082 48.8105L48.8995 48.8063Z" fill="#202020"/>
</svg>
